<?xml version="1.0" encoding="UTF-8" standalone="no"?>
<!DOCTYPE svg PUBLIC "-//W3C//DTD SVG 1.1//EN" "http://www.w3.org/Graphics/SVG/1.1/DTD/svg11.dtd">
<svg xmlns="http://www.w3.org/2000/svg" version="1.1" viewBox="0.00 0.00 1893.00 500.00">
<g stroke-width="2.00" fill="none" stroke-linecap="butt">
<path stroke="#a06e31" vector-effect="non-scaling-stroke" d="
  M 1702.77 92.37
  Q 1701.60 92.50 1700.25 92.51
  Q 1676.25 92.63 1652.25 92.51
  C 1623.70 92.36 1594.67 97.62 1569.16 111.38"
/>
<path stroke="#fbc98d" vector-effect="non-scaling-stroke" d="
  M 1569.16 111.38
  L 1552.46 105.22
  A 0.72 0.72 0.0 0 0 1551.53 105.65
  L 1542.05 131.44"
/>
<path stroke="#a06e31" vector-effect="non-scaling-stroke" d="
  M 1542.05 131.44
  L 1532.25 142.10"
/>
<path stroke="#fbc98d" vector-effect="non-scaling-stroke" d="
  M 1532.25 142.10
  L 1490.64 126.65
  Q 1489.89 126.37 1489.62 127.12
  L 1480.80 151.01
  Q 1480.56 151.68 1481.24 151.90
  Q 1489.23 154.46 1497.20 157.55
  C 1506.89 161.33 1509.63 167.61 1506.01 177.49
  Q 1487.77 227.25 1469.52 277.01
  C 1467.05 283.73 1463.02 286.46 1455.99 284.02
  Q 1448.11 281.27 1440.83 278.42
  Q 1439.55 277.92 1438.87 279.11
  L 1424.88 303.75
  A 0.65 0.64 25.2 0 0 1425.22 304.67
  L 1471.49 321.75
  A 0.77 0.77 0.0 0 1 1471.94 322.73
  L 1457.86 361.04
  A 0.34 0.33 20.9 0 0 1458.06 361.47
  L 1480.44 369.66
  A 0.90 0.90 0.0 0 0 1481.60 369.12
  L 1495.15 332.21
  Q 1495.56 331.09 1496.66 331.52
  L 1513.55 337.98
  A 0.99 0.99 0.0 0 1 1514.12 339.25
  L 1500.39 376.44
  A 0.59 0.59 0.0 0 0 1500.74 377.20
  L 1523.02 385.29
  Q 1523.77 385.56 1524.05 384.82
  L 1535.93 352.67"
/>
<path stroke="#a06e31" vector-effect="non-scaling-stroke" d="
  M 1535.93 352.67
  Q 1538.01 354.51 1539.97 356.57
  C 1563.33 381.09 1597.36 394.96 1630.53 398.23
  Q 1637.39 398.90 1650.51 398.96
  Q 1680.13 399.08 1709.75 399.20
  Q 1710.81 399.21 1711.04 399.66"
/>
<path stroke="#767676" vector-effect="non-scaling-stroke" d="
  M 1893.00 172.40
  C 1871.70 177.63 1853.18 191.52 1841.80 209.54
  C 1826.20 234.25 1824.16 267.37 1837.52 293.98
  Q 1855.00 328.80 1893.00 340.93"
/>
<path stroke="#a4a4a4" vector-effect="non-scaling-stroke" d="
  M 1535.93 352.67
  C 1521.78 337.10 1510.90 318.51 1504.00 298.64
  C 1502.50 294.32 1502.56 289.75 1506.30 287.05
  Q 1509.02 285.09 1513.09 285.44"
/>
<path stroke="#a06e31" vector-effect="non-scaling-stroke" d="
  M 1513.09 285.44
  L 1582.57 285.48"
/>
<path stroke="#a4a4a4" vector-effect="non-scaling-stroke" d="
  M 1582.57 285.48
  L 1632.10 285.66"
/>
<path stroke="#a06e31" vector-effect="non-scaling-stroke" d="
  M 1632.10 285.66
  Q 1654.02 285.73 1676.06 285.74
  Q 1683.08 285.74 1685.33 284.85
  Q 1690.65 282.73 1690.67 275.75
  Q 1690.77 248.37 1690.81 221.00
  Q 1690.82 214.82 1686.50 212.18
  Q 1684.12 210.73 1678.73 210.70
  C 1668.30 210.64 1657.88 210.74 1647.47 210.66"
/>
<path stroke="#a4a4a4" vector-effect="non-scaling-stroke" d="
  M 1647.47 210.66
  L 1599.24 210.52"
/>
<path stroke="#a06e31" vector-effect="non-scaling-stroke" d="
  M 1599.24 210.52
  L 1540.50 210.49"
/>
<path stroke="#a4a4a4" vector-effect="non-scaling-stroke" d="
  M 1540.50 210.49
  Q 1525.75 210.45 1511.00 210.46
  Q 1504.47 210.46 1502.51 204.61
  C 1501.33 201.06 1502.58 198.72 1503.76 195.23
  Q 1513.97 164.99 1532.25 142.10"
/>
<path stroke="#a4a4a4" vector-effect="non-scaling-stroke" d="
  M 1542.05 131.44
  Q 1554.60 119.68 1569.16 111.38"
/>
<path stroke="#646464" vector-effect="non-scaling-stroke" d="
  M 1529.71 313.54
  Q 1531.84 318.63 1535.46 324.05
  C 1560.29 361.26 1600.31 381.54 1644.95 381.86
  Q 1676.00 382.09 1770.75 382.05
  C 1777.55 382.04 1780.90 378.70 1781.63 372.32
  C 1781.90 369.97 1782.54 368.08 1784.08 366.57
  Q 1808.30 342.79 1832.31 319.19
  A 0.85 0.84 -40.5 0 0 1832.40 318.10
  Q 1824.18 306.73 1819.43 294.93"
/>
<path stroke="#767676" vector-effect="non-scaling-stroke" d="
  M 1819.43 294.93
  Q 1802.93 250.78 1822.49 210.11"
/>
<path stroke="#939393" vector-effect="non-scaling-stroke" d="
  M 1822.49 210.11
  Q 1829.83 195.72 1839.84 185.11"
/>
<path stroke="#767676" vector-effect="non-scaling-stroke" d="
  M 1839.84 185.11
  L 1843.37 181.56
  Q 1844.04 180.89 1843.34 180.25
  Q 1813.37 152.51 1783.71 125.02
  C 1782.40 123.80 1781.69 122.45 1781.74 120.49
  C 1781.86 114.74 1778.79 110.35 1772.50 110.32
  Q 1714.25 109.98 1656.01 110.01
  Q 1642.51 110.01 1636.01 110.52
  C 1605.98 112.85 1576.55 122.17 1554.54 143.52
  C 1540.58 157.07 1530.13 174.31 1523.22 192.49
  A 0.47 0.47 0.0 0 0 1523.66 193.13
  Q 1601.88 193.28 1680.25 193.16
  Q 1693.89 193.13 1702.19 203.28
  C 1707.02 209.18 1708.08 215.08 1708.09 223.28
  Q 1708.12 248.03 1707.98 272.78
  Q 1707.94 279.79 1707.27 282.67
  C 1705.27 291.35 1698.47 298.81 1690.16 301.59
  Q 1685.86 303.03 1674.70 303.03
  Q 1599.85 303.02 1525.18 302.79
  A 0.62 0.62 0.0 0 0 1524.63 303.70
  L 1529.71 313.54"
/>
<path stroke="#c1c1c1" vector-effect="non-scaling-stroke" d="
  M 1839.84 185.11
  L 1770.30 121.56
  A 4.00 4.00 0.0 0 0 1767.81 120.53
  C 1735.52 118.90 1702.94 117.15 1670.50 117.60
  C 1647.89 117.91 1625.20 120.29 1603.26 125.95
  C 1574.75 133.32 1550.13 149.06 1539.36 177.70
  Q 1538.70 179.44 1538.38 181.47
  A 0.33 0.33 0.0 0 0 1538.97 181.73
  C 1541.84 178.11 1544.79 174.33 1547.94 171.32
  C 1563.70 156.25 1584.08 146.86 1605.05 141.59
  C 1644.60 131.68 1687.72 133.25 1727.00 143.50
  Q 1744.70 148.12 1761.10 156.12
  C 1767.22 159.11 1772.07 163.40 1777.08 167.91
  Q 1799.90 188.47 1822.49 210.11"
/>
<path stroke="#929292" vector-effect="non-scaling-stroke" d="
  M 1819.43 294.93
  L 1762.64 346.70
  A 5.27 5.20 19.1 0 1 1759.89 348.01
  C 1722.76 353.55 1684.91 359.93 1647.25 358.92
  C 1603.51 357.75 1564.00 344.04 1531.78 313.96
  Q 1531.26 313.47 1529.71 313.54"
/>
<path stroke="#fbc98d" vector-effect="non-scaling-stroke" d="
  M 1540.50 210.49
  L 1534.74 226.07
  A 0.93 0.93 0.0 0 0 1535.27 227.26
  C 1552.03 233.78 1590.43 249.49 1598.80 222.28
  Q 1600.71 216.09 1599.24 210.52"
/>
<path stroke="#fbc98d" vector-effect="non-scaling-stroke" d="
  M 1647.47 210.66
  C 1649.90 234.40 1637.68 257.76 1612.64 261.34
  A 0.63 0.62 76.4 0 0 1612.14 262.17
  Q 1612.18 262.29 1612.27 262.44
  Q 1612.37 262.62 1612.57 262.74
  Q 1626.03 271.08 1632.10 285.66"
/>
<path stroke="#fbc98d" vector-effect="non-scaling-stroke" d="
  M 1582.57 285.48
  Q 1578.75 276.56 1571.16 271.06
  C 1557.94 261.48 1541.89 256.39 1526.68 251.00
  Q 1525.72 250.66 1525.37 251.61
  L 1513.09 285.44"
/>
<path stroke="#c1c1c1" vector-effect="non-scaling-stroke" d="
  M 1893.00 181.65
  C 1880.70 186.66 1869.26 193.19 1858.66 200.82
  Q 1855.93 202.79 1859.20 201.96
  Q 1875.20 197.89 1893.00 198.70"
/>
</g>
<path fill="#f7931a" d="
  M 1702.77 92.37
  Q 1701.60 92.50 1700.25 92.51
  Q 1676.25 92.63 1652.25 92.51
  C 1623.70 92.36 1594.67 97.62 1569.16 111.38
  L 1552.46 105.22
  A 0.72 0.72 0.0 0 0 1551.53 105.65
  L 1542.05 131.44
  L 1532.25 142.10
  L 1490.64 126.65
  Q 1489.89 126.37 1489.62 127.12
  L 1480.80 151.01
  Q 1480.56 151.68 1481.24 151.90
  Q 1489.23 154.46 1497.20 157.55
  C 1506.89 161.33 1509.63 167.61 1506.01 177.49
  Q 1487.77 227.25 1469.52 277.01
  C 1467.05 283.73 1463.02 286.46 1455.99 284.02
  Q 1448.11 281.27 1440.83 278.42
  Q 1439.55 277.92 1438.87 279.11
  L 1424.88 303.75
  A 0.65 0.64 25.2 0 0 1425.22 304.67
  L 1471.49 321.75
  A 0.77 0.77 0.0 0 1 1471.94 322.73
  L 1457.86 361.04
  A 0.34 0.33 20.9 0 0 1458.06 361.47
  L 1480.44 369.66
  A 0.90 0.90 0.0 0 0 1481.60 369.12
  L 1495.15 332.21
  Q 1495.56 331.09 1496.66 331.52
  L 1513.55 337.98
  A 0.99 0.99 0.0 0 1 1514.12 339.25
  L 1500.39 376.44
  A 0.59 0.59 0.0 0 0 1500.74 377.20
  L 1523.02 385.29
  Q 1523.77 385.56 1524.05 384.82
  L 1535.93 352.67
  Q 1538.01 354.51 1539.97 356.57
  C 1563.33 381.09 1597.36 394.96 1630.53 398.23
  Q 1637.39 398.90 1650.51 398.96
  Q 1680.13 399.08 1709.75 399.20
  Q 1710.81 399.21 1711.04 399.66
  Q 1710.40 400.10 1709.89 400.64
  C 1687.15 425.02 1659.04 444.62 1628.10 456.97
  C 1572.58 479.13 1511.81 478.14 1456.89 454.56
  C 1375.64 419.68 1322.03 338.06 1322.64 249.50
  C 1323.49 126.73 1422.45 27.90 1545.25 27.54
  C 1598.23 27.38 1648.79 46.58 1689.39 80.36
  Q 1693.18 83.52 1702.77 92.37
  Z"
/>
<path fill="#484848" d="
  M 1702.77 92.37
  C 1703.69 92.37 1704.59 92.68 1705.43 92.68
  Q 1736.72 92.75 1768.00 92.78
  C 1771.42 92.78 1775.14 92.70 1778.31 93.43
  C 1788.94 95.90 1796.21 103.69 1798.66 114.45
  A 3.19 3.17 -75.3 0 0 1799.61 116.09
  L 1857.36 169.52
  A 0.82 0.81 -40.2 0 0 1858.37 169.60
  Q 1873.41 159.69 1890.97 155.60
  Q 1891.36 155.50 1891.63 155.21
  Q 1891.81 155.02 1892.04 154.90
  A 0.42 0.41 -18.6 0 1 1892.65 155.20
  Q 1892.75 155.76 1893.00 156.09
  L 1893.00 172.40
  C 1871.70 177.63 1853.18 191.52 1841.80 209.54
  C 1826.20 234.25 1824.16 267.37 1837.52 293.98
  Q 1855.00 328.80 1893.00 340.93
  L 1893.00 358.35
  Q 1865.13 351.56 1844.60 331.91
  A 0.55 0.54 44.6 0 0 1843.83 331.91
  Q 1825.43 350.14 1806.98 368.23
  C 1803.23 371.91 1799.22 374.65 1797.95 379.01
  C 1795.31 388.00 1789.72 394.66 1781.15 397.65
  Q 1776.69 399.20 1767.17 399.23
  C 1749.11 399.27 1731.06 398.88 1713.00 399.26
  Q 1711.96 399.28 1711.04 399.66
  Q 1710.81 399.21 1709.75 399.20
  Q 1680.13 399.08 1650.51 398.96
  Q 1637.39 398.90 1630.53 398.23
  C 1597.36 394.96 1563.33 381.09 1539.97 356.57
  Q 1538.01 354.51 1535.93 352.67
  C 1521.78 337.10 1510.90 318.51 1504.00 298.64
  C 1502.50 294.32 1502.56 289.75 1506.30 287.05
  Q 1509.02 285.09 1513.09 285.44
  L 1582.57 285.48
  L 1632.10 285.66
  Q 1654.02 285.73 1676.06 285.74
  Q 1683.08 285.74 1685.33 284.85
  Q 1690.65 282.73 1690.67 275.75
  Q 1690.77 248.37 1690.81 221.00
  Q 1690.82 214.82 1686.50 212.18
  Q 1684.12 210.73 1678.73 210.70
  C 1668.30 210.64 1657.88 210.74 1647.47 210.66
  L 1599.24 210.52
  L 1540.50 210.49
  Q 1525.75 210.45 1511.00 210.46
  Q 1504.47 210.46 1502.51 204.61
  C 1501.33 201.06 1502.58 198.72 1503.76 195.23
  Q 1513.97 164.99 1532.25 142.10
  L 1542.05 131.44
  Q 1554.60 119.68 1569.16 111.38
  C 1594.67 97.62 1623.70 92.36 1652.25 92.51
  Q 1676.25 92.63 1700.25 92.51
  Q 1701.60 92.50 1702.77 92.37
  Z
  M 1529.71 313.54
  Q 1531.84 318.63 1535.46 324.05
  C 1560.29 361.26 1600.31 381.54 1644.95 381.86
  Q 1676.00 382.09 1770.75 382.05
  C 1777.55 382.04 1780.90 378.70 1781.63 372.32
  C 1781.90 369.97 1782.54 368.08 1784.08 366.57
  Q 1808.30 342.79 1832.31 319.19
  A 0.85 0.84 -40.5 0 0 1832.40 318.10
  Q 1824.18 306.73 1819.43 294.93
  Q 1802.93 250.78 1822.49 210.11
  Q 1829.83 195.72 1839.84 185.11
  L 1843.37 181.56
  Q 1844.04 180.89 1843.34 180.25
  Q 1813.37 152.51 1783.71 125.02
  C 1782.40 123.80 1781.69 122.45 1781.74 120.49
  C 1781.86 114.74 1778.79 110.35 1772.50 110.32
  Q 1714.25 109.98 1656.01 110.01
  Q 1642.51 110.01 1636.01 110.52
  C 1605.98 112.85 1576.55 122.17 1554.54 143.52
  C 1540.58 157.07 1530.13 174.31 1523.22 192.49
  A 0.47 0.47 0.0 0 0 1523.66 193.13
  Q 1601.88 193.28 1680.25 193.16
  Q 1693.89 193.13 1702.19 203.28
  C 1707.02 209.18 1708.08 215.08 1708.09 223.28
  Q 1708.12 248.03 1707.98 272.78
  Q 1707.94 279.79 1707.27 282.67
  C 1705.27 291.35 1698.47 298.81 1690.16 301.59
  Q 1685.86 303.03 1674.70 303.03
  Q 1599.85 303.02 1525.18 302.79
  A 0.62 0.62 0.0 0 0 1524.63 303.70
  L 1529.71 313.54
  Z"
/>
<path fill="#484848" d="
  M 290.88 146.75
  C 280.88 145.33 275.45 138.71 274.99 128.38
  C 274.45 116.19 274.37 100.48 289.79 97.38
  Q 291.86 96.97 293.93 96.50
  C 299.80 95.18 307.30 95.71 313.31 95.97
  C 315.41 96.06 318.95 96.66 321.09 97.28
  C 325.75 98.63 329.32 100.90 331.67 105.06
  C 335.06 111.05 334.82 122.10 334.02 129.25
  C 333.02 138.08 329.05 144.33 319.79 146.32
  C 309.74 148.49 300.98 148.19 290.88 146.75
  Z"
/>
<path fill="#484848" d="
  M 197.51 98.82
  Q 210.45 103.93 212.56 117.79
  Q 212.83 119.53 213.16 121.27
  Q 213.43 122.69 213.42 124.76
  C 213.41 126.71 213.86 128.66 213.86 130.43
  Q 213.90 155.84 213.88 181.25
  Q 213.87 188.80 215.24 194.50
  C 217.77 205.04 232.32 206.37 238.98 211.67
  C 244.73 216.25 243.83 225.35 244.15 231.50
  Q 244.42 236.86 244.43 239.74
  Q 244.50 291.75 244.30 343.75
  C 244.27 351.42 243.60 362.54 239.46 368.95
  C 235.00 375.85 227.62 378.24 219.74 379.07
  C 215.26 379.54 210.98 380.00 206.41 380.00
  Q 134.55 380.00 62.68 379.99
  C 57.87 379.99 52.91 379.31 48.00 378.97
  Q 46.66 378.88 42.07 377.37
  C 32.42 374.18 27.18 367.50 25.88 357.60
  C 25.56 355.19 24.94 352.83 24.94 350.45
  Q 24.92 239.47 24.93 128.50
  C 24.93 121.61 26.19 111.95 29.99 106.55
  Q 33.93 100.95 41.25 99.01
  C 49.96 96.70 60.08 96.21 69.14 96.21
  Q 121.23 96.21 173.32 96.22
  C 179.51 96.22 185.76 96.79 191.99 97.18
  Q 193.63 97.28 197.51 98.82
  Z
  M 62.29 191.97
  C 63.31 197.94 67.95 203.65 74.13 204.86
  Q 84.12 206.82 89.75 206.81
  Q 119.19 206.77 148.62 206.79
  C 154.12 206.79 159.09 206.23 164.00 205.00
  Q 174.32 202.43 176.03 191.75
  C 176.26 190.35 176.79 189.10 176.90 187.72
  C 177.19 183.78 177.94 179.90 177.95 176.08
  Q 177.95 169.89 177.92 163.70
  C 177.91 159.55 177.13 155.27 176.80 151.00
  Q 176.58 148.12 175.21 144.25
  C 173.37 139.01 170.23 135.69 164.98 134.26
  C 159.59 132.78 154.37 132.21 148.28 132.20
  Q 120.20 132.16 92.11 132.21
  C 86.56 132.22 80.52 132.83 75.04 134.00
  C 68.92 135.31 64.64 138.79 62.97 145.00
  C 61.89 149.01 61.19 153.94 61.07 158.00
  C 60.73 169.32 60.37 180.77 62.29 191.97
  Z
  M 204.98 251.50
  C 202.08 245.70 196.70 243.47 190.53 243.02
  C 186.82 242.76 183.11 242.20 179.48 242.20
  Q 149.56 242.17 119.64 242.21
  C 116.24 242.21 112.66 242.82 109.13 243.02
  C 106.91 243.15 103.36 244.12 101.50 244.99
  Q 95.76 247.68 94.24 253.51
  C 91.04 265.78 91.91 275.83 91.85 292.32
  C 91.84 293.26 91.42 294.15 91.43 295.00
  Q 91.52 302.41 91.45 309.83
  C 91.44 311.09 91.96 312.33 91.91 313.49
  Q 91.52 322.60 94.13 331.24
  C 97.52 342.46 107.51 343.95 117.69 343.97
  Q 148.88 344.03 180.06 344.00
  Q 183.78 344.00 186.92 343.65
  C 194.79 342.77 201.18 342.03 205.07 334.12
  C 206.87 330.46 207.82 324.86 207.94 320.97
  Q 208.26 311.00 208.22 301.03
  C 208.21 298.07 208.80 294.36 208.59 290.97
  Q 208.21 285.10 208.23 283.51
  Q 208.41 270.97 206.77 258.53
  Q 206.16 253.85 204.98 251.50
  Z"
/>
<path fill="#484848" d="
  M 901.25 120.03
  C 899.31 129.11 891.29 131.53 883.20 132.00
  C 868.63 132.85 853.95 132.46 839.36 132.47
  C 833.83 132.48 828.52 132.95 823.27 134.58
  C 815.39 137.03 812.57 143.37 811.97 151.03
  C 811.81 153.08 811.16 155.04 811.13 157.00
  Q 810.92 170.00 811.19 183.00
  C 811.22 184.48 811.84 186.28 811.85 188.02
  C 812.03 211.28 836.86 202.07 840.11 219.58
  C 840.96 224.18 841.46 228.91 841.47 233.62
  Q 841.51 290.38 841.48 347.14
  C 841.47 353.86 840.75 360.27 837.90 367.18
  C 831.95 381.63 806.86 381.16 794.61 378.58
  C 777.89 375.08 775.01 361.29 775.01 346.48
  Q 775.00 252.92 774.99 159.36
  C 774.99 154.97 774.72 147.86 772.87 143.92
  C 770.06 137.92 764.37 133.42 757.50 133.15
  C 751.04 132.89 744.52 132.39 738.16 132.44
  C 725.07 132.53 716.39 132.65 706.75 131.99
  C 702.33 131.69 696.20 129.05 693.29 125.27
  C 689.36 120.17 689.25 108.23 693.38 103.18
  C 698.71 96.68 709.88 96.21 717.76 96.21
  Q 795.14 96.21 872.52 96.22
  C 879.71 96.22 886.08 96.65 892.24 98.34
  Q 898.62 100.08 900.66 106.75
  Q 902.68 113.32 901.25 120.03
  Z"
/>
<path fill="#ffffff" d="
  M 1569.16 111.38
  Q 1554.60 119.68 1542.05 131.44
  L 1551.53 105.65
  A 0.72 0.72 0.0 0 1 1552.46 105.22
  L 1569.16 111.38
  Z"
/>
<path fill="#484848" d="
  M 420.94 211.03
  C 413.86 211.20 411.03 213.94 410.97 221.55
  Q 410.89 230.65 410.95 239.75
  C 411.04 254.62 422.32 252.37 431.98 257.55
  C 438.48 261.04 437.88 267.81 438.51 274.09
  Q 438.84 277.36 438.85 279.91
  Q 438.90 310.71 438.86 341.50
  C 438.86 343.94 438.44 346.22 438.48 348.18
  C 438.64 355.44 437.67 364.43 434.68 370.72
  C 431.19 378.05 420.99 379.50 413.24 379.99
  Q 405.73 380.47 395.31 378.52
  Q 381.22 375.87 380.08 361.47
  C 379.74 357.24 379.21 353.04 379.21 348.84
  Q 379.21 289.92 378.98 231.00
  C 378.96 226.50 380.23 216.70 376.53 213.56
  C 372.11 209.81 364.44 211.89 359.24 210.22
  C 349.43 207.07 345.60 198.06 348.83 188.45
  C 351.95 179.16 362.07 179.34 370.00 179.03
  Q 373.23 178.91 375.60 176.92
  C 378.55 174.45 379.18 169.74 379.20 166.01
  C 379.25 151.33 378.81 136.55 380.02 122.00
  C 380.15 120.46 380.85 118.69 381.19 116.99
  C 383.13 107.09 394.86 105.64 402.54 108.43
  C 410.39 111.27 411.00 122.56 410.99 129.72
  Q 410.96 149.65 411.09 169.58
  Q 411.12 173.65 414.38 177.30
  Q 414.70 177.65 415.15 177.76
  C 417.33 178.29 419.03 178.99 421.34 178.96
  C 433.37 178.85 443.15 181.99 442.25 196.26
  C 441.46 208.73 431.20 210.79 420.94 211.03
  Z"
/>
<path fill="#484848" d="
  M 528.71 211.05
  C 521.74 211.21 519.03 214.12 518.97 221.55
  Q 518.90 230.65 518.95 239.75
  C 519.06 260.29 541.68 249.18 545.37 264.70
  C 546.34 268.78 546.66 273.54 546.68 277.74
  Q 546.85 309.73 546.88 341.72
  Q 546.88 343.18 546.61 345.76
  C 546.32 348.60 546.59 351.41 546.20 354.15
  Q 545.89 356.31 545.70 358.48
  Q 545.08 365.26 542.86 370.36
  C 539.39 378.33 529.24 379.08 521.75 380.01
  Q 515.46 380.78 503.07 378.43
  Q 489.63 375.89 488.25 362.22
  C 487.78 357.63 487.21 353.21 487.21 348.57
  Q 487.21 289.79 486.98 231.00
  C 486.96 226.50 488.24 216.70 484.53 213.56
  C 480.11 209.81 472.44 211.89 467.24 210.22
  C 457.28 207.02 453.55 197.79 456.90 188.15
  C 459.52 180.63 467.50 179.26 475.11 179.27
  C 484.01 179.28 487.16 174.92 487.19 166.00
  Q 487.23 151.08 487.21 136.17
  C 487.21 133.76 487.55 130.60 487.62 127.50
  Q 487.80 119.96 490.07 114.28
  C 493.10 106.69 504.11 106.10 510.54 108.43
  C 519.22 111.58 519.02 124.94 519.01 132.39
  Q 518.97 149.07 518.90 165.75
  C 518.89 169.08 519.45 174.05 521.79 176.63
  C 523.05 178.03 526.91 179.03 528.85 178.98
  C 540.93 178.66 551.16 181.80 550.25 196.26
  C 549.46 208.85 539.02 210.81 528.71 211.05
  Z"
/>
<path fill="#a4a4a4" d="
  M 1839.84 185.11
  L 1770.30 121.56
  A 4.00 4.00 0.0 0 0 1767.81 120.53
  C 1735.52 118.90 1702.94 117.15 1670.50 117.60
  C 1647.89 117.91 1625.20 120.29 1603.26 125.95
  C 1574.75 133.32 1550.13 149.06 1539.36 177.70
  Q 1538.70 179.44 1538.38 181.47
  A 0.33 0.33 0.0 0 0 1538.97 181.73
  C 1541.84 178.11 1544.79 174.33 1547.94 171.32
  C 1563.70 156.25 1584.08 146.86 1605.05 141.59
  C 1644.60 131.68 1687.72 133.25 1727.00 143.50
  Q 1744.70 148.12 1761.10 156.12
  C 1767.22 159.11 1772.07 163.40 1777.08 167.91
  Q 1799.90 188.47 1822.49 210.11
  Q 1802.93 250.78 1819.43 294.93
  L 1762.64 346.70
  A 5.27 5.20 19.1 0 1 1759.89 348.01
  C 1722.76 353.55 1684.91 359.93 1647.25 358.92
  C 1603.51 357.75 1564.00 344.04 1531.78 313.96
  Q 1531.26 313.47 1529.71 313.54
  L 1524.63 303.70
  A 0.62 0.62 0.0 0 1 1525.18 302.79
  Q 1599.85 303.02 1674.70 303.03
  Q 1685.86 303.03 1690.16 301.59
  C 1698.47 298.81 1705.27 291.35 1707.27 282.67
  Q 1707.94 279.79 1707.98 272.78
  Q 1708.12 248.03 1708.09 223.28
  C 1708.08 215.08 1707.02 209.18 1702.19 203.28
  Q 1693.89 193.13 1680.25 193.16
  Q 1601.88 193.28 1523.66 193.13
  A 0.47 0.47 0.0 0 1 1523.22 192.49
  C 1530.13 174.31 1540.58 157.07 1554.54 143.52
  C 1576.55 122.17 1605.98 112.85 1636.01 110.52
  Q 1642.51 110.01 1656.01 110.01
  Q 1714.25 109.98 1772.50 110.32
  C 1778.79 110.35 1781.86 114.74 1781.74 120.49
  C 1781.69 122.45 1782.40 123.80 1783.71 125.02
  Q 1813.37 152.51 1843.34 180.25
  Q 1844.04 180.89 1843.37 181.56
  L 1839.84 185.11
  Z"
/>
<path fill="#dddddd" d="
  M 1839.84 185.11
  Q 1829.83 195.72 1822.49 210.11
  Q 1799.90 188.47 1777.08 167.91
  C 1772.07 163.40 1767.22 159.11 1761.10 156.12
  Q 1744.70 148.12 1727.00 143.50
  C 1687.72 133.25 1644.60 131.68 1605.05 141.59
  C 1584.08 146.86 1563.70 156.25 1547.94 171.32
  C 1544.79 174.33 1541.84 178.11 1538.97 181.73
  A 0.33 0.33 0.0 0 1 1538.38 181.47
  Q 1538.70 179.44 1539.36 177.70
  C 1550.13 149.06 1574.75 133.32 1603.26 125.95
  C 1625.20 120.29 1647.89 117.91 1670.50 117.60
  C 1702.94 117.15 1735.52 118.90 1767.81 120.53
  A 4.00 4.00 0.0 0 1 1770.30 121.56
  L 1839.84 185.11
  Z"
/>
<path fill="#ffffff" d="
  M 1532.25 142.10
  Q 1513.97 164.99 1503.76 195.23
  C 1502.58 198.72 1501.33 201.06 1502.51 204.61
  Q 1504.47 210.46 1511.00 210.46
  Q 1525.75 210.45 1540.50 210.49
  L 1534.74 226.07
  A 0.93 0.93 0.0 0 0 1535.27 227.26
  C 1552.03 233.78 1590.43 249.49 1598.80 222.28
  Q 1600.71 216.09 1599.24 210.52
  L 1647.47 210.66
  C 1649.90 234.40 1637.68 257.76 1612.64 261.34
  A 0.63 0.62 76.4 0 0 1612.14 262.17
  Q 1612.18 262.29 1612.27 262.44
  Q 1612.37 262.62 1612.57 262.74
  Q 1626.03 271.08 1632.10 285.66
  L 1582.57 285.48
  Q 1578.75 276.56 1571.16 271.06
  C 1557.94 261.48 1541.89 256.39 1526.68 251.00
  Q 1525.72 250.66 1525.37 251.61
  L 1513.09 285.44
  Q 1509.02 285.09 1506.30 287.05
  C 1502.56 289.75 1502.50 294.32 1504.00 298.64
  C 1510.90 318.51 1521.78 337.10 1535.93 352.67
  L 1524.05 384.82
  Q 1523.77 385.56 1523.02 385.29
  L 1500.74 377.20
  A 0.59 0.59 0.0 0 1 1500.39 376.44
  L 1514.12 339.25
  A 0.99 0.99 0.0 0 0 1513.55 337.98
  L 1496.66 331.52
  Q 1495.56 331.09 1495.15 332.21
  L 1481.60 369.12
  A 0.90 0.90 0.0 0 1 1480.44 369.66
  L 1458.06 361.47
  A 0.34 0.33 20.9 0 1 1457.86 361.04
  L 1471.94 322.73
  A 0.77 0.77 0.0 0 0 1471.49 321.75
  L 1425.22 304.67
  A 0.65 0.64 25.2 0 1 1424.88 303.75
  L 1438.87 279.11
  Q 1439.55 277.92 1440.83 278.42
  Q 1448.11 281.27 1455.99 284.02
  C 1463.02 286.46 1467.05 283.73 1469.52 277.01
  Q 1487.77 227.25 1506.01 177.49
  C 1509.63 167.61 1506.89 161.33 1497.20 157.55
  Q 1489.23 154.46 1481.24 151.90
  Q 1480.56 151.68 1480.80 151.01
  L 1489.62 127.12
  Q 1489.89 126.37 1490.64 126.65
  L 1532.25 142.10
  Z"
/>
<path fill="#a4a4a4" d="
  M 1893.00 172.40
  L 1893.00 181.65
  C 1880.70 186.66 1869.26 193.19 1858.66 200.82
  Q 1855.93 202.79 1859.20 201.96
  Q 1875.20 197.89 1893.00 198.70
  L 1893.00 340.93
  Q 1855.00 328.80 1837.52 293.98
  C 1824.16 267.37 1826.20 234.25 1841.80 209.54
  C 1853.18 191.52 1871.70 177.63 1893.00 172.40
  Z"
/>
<path fill="#484848" d="
  M 312.64 251.72
  Q 314.00 252.39 315.39 253.04
  C 321.50 255.90 330.66 255.89 332.58 263.64
  Q 334.00 269.40 334.04 277.50
  Q 334.22 314.41 334.02 351.31
  C 334.00 354.44 333.20 357.71 333.02 361.01
  Q 332.93 362.64 331.78 366.39
  C 328.30 377.69 319.23 379.54 308.74 379.86
  Q 302.12 380.07 295.54 379.39
  C 286.83 378.50 280.57 376.11 277.29 368.00
  C 275.65 363.93 274.97 356.93 274.96 352.21
  Q 274.88 277.75 274.95 203.28
  C 274.96 196.10 275.44 185.82 280.82 181.32
  C 284.66 178.11 291.08 178.01 295.74 179.03
  Q 302.82 180.60 304.65 187.60
  C 305.37 190.36 306.05 193.93 306.06 197.18
  Q 306.17 215.84 306.24 234.50
  C 306.27 240.72 306.08 248.50 312.64 251.72
  Z"
/>
<path fill="#484848" d="
  M 705.76 388.76
  C 704.65 383.78 701.72 381.73 696.76 380.84
  C 694.48 380.43 692.41 380.00 690.07 380.00
  Q 651.71 380.01 613.35 379.99
  C 607.08 379.99 600.00 379.37 594.01 377.48
  C 587.63 375.47 584.66 370.87 583.34 364.48
  Q 581.69 356.46 581.71 348.25
  Q 581.88 279.65 581.95 211.06
  C 581.96 203.60 582.37 196.19 584.24 190.00
  Q 585.34 186.37 589.49 183.19
  Q 593.44 180.17 601.28 179.22
  Q 612.98 177.80 624.68 179.45
  C 638.85 181.45 640.72 194.94 640.84 207.00
  Q 641.19 243.50 641.07 280.00
  C 641.05 285.27 641.24 292.99 638.43 297.10
  C 632.58 305.67 616.63 301.78 614.15 313.33
  C 612.53 320.87 612.97 328.67 614.16 338.06
  C 615.49 348.45 626.23 348.19 635.25 348.24
  Q 660.12 348.38 685.00 348.40
  C 693.73 348.41 703.56 347.81 705.60 338.84
  C 706.61 334.37 706.93 329.79 706.93 324.69
  Q 706.92 263.09 706.94 201.49
  C 706.94 195.86 707.46 190.42 709.20 185.71
  C 711.85 178.55 720.87 177.62 727.73 179.03
  Q 734.90 180.49 736.65 187.55
  Q 738.23 193.92 738.22 200.50
  Q 738.12 314.90 738.09 429.29
  C 738.09 431.94 737.27 434.35 736.91 436.99
  C 735.68 445.97 731.17 450.32 722.47 452.16
  C 716.92 453.33 710.32 453.50 704.51 453.50
  Q 655.50 453.51 606.50 453.28
  C 597.88 453.24 585.23 453.09 582.80 442.69
  C 581.46 436.99 582.21 428.71 587.93 425.42
  C 591.68 423.27 598.11 421.98 602.54 421.98
  Q 645.80 422.01 689.06 421.99
  C 691.98 421.99 694.78 421.15 697.72 420.74
  Q 701.73 420.19 704.68 415.46
  Q 706.60 412.37 707.01 405.76
  Q 707.57 396.80 705.76 388.76
  Z"
/>
<path fill="#484848" d="
  M 1209.42 275.22
  A 0.26 0.26 0.0 0 0 1209.38 275.67
  C 1215.41 279.63 1220.07 283.12 1221.36 290.75
  Q 1222.81 299.30 1222.41 308.01
  C 1222.38 308.59 1222.85 309.28 1222.85 310.02
  Q 1222.89 330.31 1222.86 350.59
  Q 1222.86 353.79 1222.57 357.41
  C 1222.09 363.55 1222.35 372.38 1217.19 376.84
  C 1212.20 381.14 1202.54 380.75 1197.31 377.68
  C 1191.60 374.34 1191.23 361.02 1191.22 355.05
  C 1191.19 338.05 1191.27 321.08 1190.91 304.08
  C 1190.88 302.80 1190.14 300.87 1189.83 299.24
  C 1188.36 291.37 1179.04 290.81 1172.50 290.72
  Q 1158.62 290.54 1144.75 290.67
  Q 1136.83 290.75 1132.74 292.45
  C 1126.91 294.86 1126.52 299.10 1125.53 304.43
  Q 1125.09 306.81 1125.10 308.60
  Q 1125.17 330.24 1125.01 351.88
  C 1124.99 354.32 1124.38 356.76 1124.16 359.26
  C 1123.30 368.68 1119.81 376.70 1109.60 378.70
  Q 1092.93 381.98 1078.74 377.95
  Q 1073.73 376.52 1070.46 372.20
  Q 1067.98 368.92 1067.03 363.20
  Q 1066.11 357.66 1066.05 352.00
  Q 1065.70 312.18 1066.04 301.00
  Q 1066.15 297.24 1067.69 291.97
  Q 1069.18 286.86 1071.84 283.95
  Q 1076.07 279.31 1082.48 277.74
  Q 1085.26 277.05 1082.52 276.21
  Q 1080.39 275.55 1077.51 273.93
  Q 1068.93 269.10 1066.98 257.99
  Q 1066.09 252.92 1066.08 251.25
  Q 1065.74 208.38 1066.01 197.00
  Q 1066.08 193.96 1067.27 189.28
  C 1068.99 182.50 1071.65 179.73 1078.49 178.72
  C 1085.89 177.63 1093.99 179.62 1095.88 187.73
  Q 1097.11 193.04 1097.11 198.50
  Q 1097.13 217.25 1097.09 236.00
  Q 1097.08 240.21 1098.05 247.76
  C 1099.12 256.10 1105.17 258.96 1112.91 259.00
  Q 1143.69 259.13 1174.47 259.00
  C 1176.88 258.99 1181.50 258.25 1183.76 257.27
  C 1189.53 254.78 1190.99 248.12 1191.07 242.05
  Q 1191.33 221.44 1191.18 200.84
  Q 1191.17 198.93 1191.51 196.71
  C 1192.38 190.90 1192.65 182.14 1199.47 179.74
  C 1206.14 177.39 1216.61 177.86 1220.01 184.76
  C 1222.06 188.92 1222.42 195.20 1222.51 201.30
  Q 1222.52 201.70 1222.71 202.06
  Q 1222.85 202.32 1222.85 202.50
  Q 1222.92 215.38 1222.85 245.75
  Q 1222.85 246.29 1222.61 248.73
  C 1222.00 254.98 1222.51 262.00 1218.65 267.52
  Q 1215.15 272.52 1209.42 275.22
  Z"
/>
<path fill="#484848" d="
  M 990.92 257.80
  C 995.96 256.92 999.04 253.11 999.90 247.96
  Q 1002.20 234.11 999.77 220.25
  C 998.03 210.32 987.84 210.79 980.25 210.73
  Q 953.82 210.51 927.38 210.50
  Q 925.57 210.50 923.14 210.75
  C 917.91 211.30 911.98 211.21 909.56 217.02
  Q 908.19 220.33 907.94 223.89
  C 907.14 235.24 902.60 243.19 889.88 242.17
  Q 885.95 241.86 883.72 240.78
  C 873.60 235.88 875.85 214.29 876.01 204.97
  C 876.08 200.93 876.78 197.14 877.46 193.19
  Q 878.93 184.73 886.48 181.73
  C 888.31 181.00 892.22 180.06 894.42 179.98
  C 898.59 179.82 902.89 179.22 906.86 179.22
  Q 953.57 179.20 1000.29 179.21
  C 1004.51 179.22 1008.83 179.69 1013.14 179.94
  Q 1015.08 180.05 1016.81 180.48
  Q 1018.63 180.93 1020.45 181.42
  Q 1028.60 183.57 1030.39 191.91
  Q 1031.03 194.92 1031.56 197.97
  Q 1032.07 200.84 1032.07 204.08
  Q 1032.14 277.29 1032.09 350.49
  Q 1032.09 355.29 1031.64 359.17
  C 1030.15 372.14 1026.39 377.74 1012.78 379.07
  C 1009.20 379.42 1005.62 379.98 1002.06 379.99
  Q 954.70 380.02 907.34 379.99
  C 900.26 379.98 891.84 379.35 885.33 376.35
  C 880.42 374.08 878.50 369.71 877.43 364.73
  C 875.82 357.21 875.97 352.36 875.95 342.41
  Q 875.87 314.26 875.98 286.11
  C 876.00 281.42 876.66 277.24 877.49 272.76
  C 879.41 262.25 887.64 260.30 896.82 259.38
  Q 900.66 259.00 906.68 259.00
  Q 944.97 259.00 983.25 259.00
  C 985.43 259.00 987.79 258.34 990.92 257.80
  Z
  M 936.64 298.92
  C 934.00 309.05 935.10 320.67 935.12 331.11
  C 935.12 333.28 935.62 335.42 935.92 337.59
  C 936.87 344.35 940.28 347.45 947.13 347.95
  C 950.04 348.16 953.00 348.69 955.72 348.71
  Q 967.45 348.82 979.19 348.70
  Q 982.91 348.67 986.02 348.26
  C 992.69 347.40 998.34 346.09 999.69 338.74
  C 1001.47 329.05 1001.04 320.61 1000.83 308.00
  Q 1000.80 305.71 999.69 300.52
  C 997.87 291.99 993.35 291.50 985.75 290.52
  Q 982.84 290.14 979.72 290.12
  Q 966.23 290.01 952.75 290.13
  Q 950.31 290.15 945.00 291.43
  C 940.45 292.51 937.78 294.50 936.64 298.92
  Z"
/>
<path fill="#dddddd" d="
  M 1893.00 181.65
  L 1893.00 198.70
  Q 1875.20 197.89 1859.20 201.96
  Q 1855.93 202.79 1858.66 200.82
  C 1869.26 193.19 1880.70 186.66 1893.00 181.65
  Z"
/>
<path fill="#f7931a" d="
  M 1540.50 210.49
  L 1599.24 210.52
  Q 1600.71 216.09 1598.80 222.28
  C 1590.43 249.49 1552.03 233.78 1535.27 227.26
  A 0.93 0.93 0.0 0 1 1534.74 226.07
  L 1540.50 210.49
  Z"
/>
<path fill="#f7931a" d="
  M 1632.10 285.66
  Q 1626.03 271.08 1612.57 262.74
  Q 1612.37 262.62 1612.27 262.44
  Q 1612.18 262.29 1612.14 262.17
  A 0.63 0.62 76.4 0 1 1612.64 261.34
  C 1637.68 257.76 1649.90 234.40 1647.47 210.66
  C 1657.88 210.74 1668.30 210.64 1678.73 210.70
  Q 1684.12 210.73 1686.50 212.18
  Q 1690.82 214.82 1690.81 221.00
  Q 1690.77 248.37 1690.67 275.75
  Q 1690.65 282.73 1685.33 284.85
  Q 1683.08 285.74 1676.06 285.74
  Q 1654.02 285.73 1632.10 285.66
  Z"
/>
<path fill="#f7931a" d="
  M 1582.57 285.48
  L 1513.09 285.44
  L 1525.37 251.61
  Q 1525.72 250.66 1526.68 251.00
  C 1541.89 256.39 1557.94 261.48 1571.16 271.06
  Q 1578.75 276.56 1582.57 285.48
  Z"
/>
<path fill="#808080" d="
  M 1819.43 294.93
  Q 1824.18 306.73 1832.40 318.10
  A 0.85 0.84 -40.5 0 1 1832.31 319.19
  Q 1808.30 342.79 1784.08 366.57
  C 1782.54 368.08 1781.90 369.97 1781.63 372.32
  C 1780.90 378.70 1777.55 382.04 1770.75 382.05
  Q 1676.00 382.09 1644.95 381.86
  C 1600.31 381.54 1560.29 361.26 1535.46 324.05
  Q 1531.84 318.63 1529.71 313.54
  Q 1531.26 313.47 1531.78 313.96
  C 1564.00 344.04 1603.51 357.75 1647.25 358.92
  C 1684.91 359.93 1722.76 353.55 1759.89 348.01
  A 5.27 5.20 19.1 0 0 1762.64 346.70
  L 1819.43 294.93
  Z"
/>
</svg>
